<svg xmlns="http://www.w3.org/2000/svg" version="1.1" xmlns:xlink="http://www.w3.org/1999/xlink" xmlns:svgjs="http://svgjs.dev/svgjs" width="2000" height="1500" viewBox="0 0 2000 1500"><rect width="2000" height="1500" fill="#957c3d"></rect><g transform="matrix(0.75,0,0,0.75,249.090909090909,282.75364372469653)"><svg viewBox="0 0 396 247" data-background-color="#957c3d" preserveAspectRatio="xMidYMid meet" height="1247" width="2000" xmlns="http://www.w3.org/2000/svg" xmlns:xlink="http://www.w3.org/1999/xlink"><g id="tight-bounds" transform="matrix(1,0,0,1,0.2400000000000091,-0.09999999999999432)"><svg viewBox="0 0 395.52 247.2" height="247.2" width="395.52"><g><svg></svg></g><g><svg viewBox="0 0 395.52 247.2" height="247.2" width="395.52"><g transform="matrix(1,0,0,1,100.7847376912388,47.215199999999996)"><svg viewBox="0 0 193.95052461752238 152.7696" height="152.7696" width="193.95052461752238"><g><svg viewBox="0 0 193.95052461752238 152.7696" height="152.7696" width="193.95052461752238"><g><svg viewBox="0 0 244.43135999999996 192.5319932405193" height="152.7696" width="193.95052461752238"><g><svg viewBox="0 0 244.43135999999996 192.5319932405193" height="192.5319932405193" width="244.43135999999996"><g id="textblocktransform"><svg viewBox="0 0 244.43135999999996 192.5319932405193" height="192.5319932405193" width="244.43135999999996" id="textblock"><g><svg viewBox="0 0 244.43135999999996 139.15698027977956" height="139.15698027977956" width="244.43135999999996"><g transform="matrix(1,0,0,1,0,0)"><svg width="244.43135999999996" viewBox="3.61 -32.45 57.59 32.790000000000006" height="139.15698027977956" data-palette-color="#002349"><path d="M5.93-32.08L5.93-32.08Q6.49-32.08 6.79-31.95 7.08-31.81 7.45-31.32L7.45-31.32 24.88-7.32Q24.83-7.91 24.79-8.48 24.76-9.06 24.76-9.55L24.76-9.55 24.76-32.08 28.66-32.08 28.66 0 26.42 0Q25.9 0 25.55-0.17 25.2-0.34 24.85-0.78L24.85-0.78 7.42-24.71Q7.47-24.15 7.5-23.63 7.52-23.12 7.52-22.66L7.52-22.66 7.52 0 3.61 0 3.61-32.08 5.93-32.08ZM61.2-3.1L61.2-3.1Q58.86-1.37 56.21-0.51 53.56 0.34 50.46 0.34L50.46 0.34Q46.73 0.34 43.71-0.85 40.7-2.05 38.57-4.21 36.45-6.37 35.3-9.39 34.15-12.4 34.15-16.04L34.15-16.04Q34.15-19.7 35.26-22.72 36.37-25.73 38.44-27.89 40.5-30.05 43.43-31.25 46.36-32.45 50-32.45L50-32.45Q51.85-32.45 53.43-32.17 55-31.88 56.35-31.36 57.69-30.83 58.82-30.08 59.96-29.32 60.94-28.39L60.94-28.39 59.69-26.39Q59.4-25.9 58.91-25.78 58.42-25.66 57.86-26L57.86-26Q57.3-26.32 56.63-26.77 55.95-27.22 55.03-27.62 54.1-28.03 52.83-28.32 51.56-28.61 49.83-28.61L49.83-28.61Q47.29-28.61 45.22-27.73 43.16-26.86 41.71-25.22 40.26-23.58 39.48-21.25 38.69-18.92 38.69-16.04L38.69-16.04Q38.69-13.04 39.51-10.66 40.33-8.28 41.86-6.63 43.38-4.98 45.53-4.11 47.68-3.25 50.34-3.25L50.34-3.25Q52.39-3.25 54-3.72 55.61-4.2 57.18-5.05L57.18-5.05 57.18-12.08 52.56-12.08Q52.12-12.08 51.85-12.33 51.58-12.57 51.58-12.94L51.58-12.94 51.58-15.45 61.2-15.45 61.2-3.1Z" opacity="1" transform="matrix(1,0,0,1,0,0)" fill="#002349" class="wordmark-text-0" data-fill-palette-color="primary" id="text-0"></path></svg></g></svg></g><g transform="matrix(1,0,0,1,0,172.0086035563088)"><svg viewBox="0 0 244.43135999999996 20.52338968421052" height="20.52338968421052" width="244.43135999999996"><g transform="matrix(1,0,0,1,0,0)"><svg width="244.43135999999996" viewBox="7.08 -36.89 593.6899999999999 49.85" height="20.52338968421052" data-palette-color="#002349"><path d="M27.17-31.03L11.23-31.03 11.23-19.7 25.71-19.7 25.71-16.04 11.23-16.04 11.23 0 7.08 0 7.08-34.69 27.17-34.69 27.17-31.03ZM50.8-4.98L50.8-24.12 54.81-24.12 54.81 0 52 0 51.14-2.03Q46.53 0.49 42.62 0.49L42.62 0.49Q40.65 0.49 39.18-0.13 37.72-0.76 36.91-1.68 36.11-2.61 35.62-4.04 35.13-5.47 35-6.76 34.86-8.06 34.86-9.72L34.86-9.72 34.86-24.12 38.86-24.12 38.86-9.42Q38.86-3.1 44.36-3.1L44.36-3.1Q47.19-3.1 50.8-4.98L50.8-4.98ZM64.08 0L64.08-36.89 68.09-36.89 68.09 0 64.08 0ZM77.85 0L77.85-36.89 81.85-36.89 81.85 0 77.85 0ZM120.45-35.01L120.45-35.01Q124.45-35.01 129.06-33.62L129.06-33.62 127.72-29.83Q123.33-31.1 120.1-31.1L120.1-31.1Q116.49-31.1 113.99-29.58 111.49-28.05 111.49-25.63L111.49-25.63Q111.49-24.29 112.29-23.24 113.1-22.19 114.42-21.53 115.73-20.87 117.42-20.23 119.1-19.58 120.85-19.04 122.59-18.51 124.28-17.68 125.96-16.85 127.28-15.86 128.6-14.87 129.41-13.28 130.21-11.69 130.21-9.69L130.21-9.69Q130.21-8.3 129.77-6.92 129.33-5.54 128.31-4.19 127.28-2.83 125.77-1.81 124.26-0.78 121.95-0.15 119.64 0.49 116.81 0.49 113.98 0.49 111.6-0.1 109.22-0.68 106.26-1.86L106.26-1.86 107.68-5.88Q113.78-3.61 117.32-3.61L117.32-3.61Q121.03-3.61 123.36-5.1 125.7-6.59 125.7-9.08L125.7-9.08Q125.7-10.74 124.66-11.95 123.62-13.16 121.97-13.9 120.32-14.65 118.32-15.3 116.32-15.94 114.33-16.69 112.34-17.43 110.69-18.41 109.05-19.38 108.01-21.04 106.97-22.71 106.97-24.95L106.97-24.95Q106.97-26.95 107.93-28.78 108.9-30.62 110.61-31.99 112.32-33.37 114.88-34.19 117.44-35.01 120.45-35.01ZM150.28-3.15L150.84-0.42Q147.3 0.49 145.32 0.49 143.34 0.49 141.98-0.15 140.61-0.78 139.9-1.95 139.19-3.13 138.89-4.48 138.58-5.83 138.58-7.59L138.58-7.59 138.58-20.97 135.34-20.97 135.34-24.12 138.58-24.12 138.58-31.03 142.59-31.03 142.59-24.12 149.94-24.12 149.94-20.97 142.59-20.97 142.59-7.64Q142.59-2.64 146.54-2.64L146.54-2.64Q147.25-2.64 150.28-3.15L150.28-3.15ZM164.92-24.58L164.92-24.58Q167.61-24.58 169.48-23.96 171.34-23.34 172.36-22.14 173.37-20.95 173.81-19.48 174.25-18.02 174.25-16.11L174.25-16.11 174.25 0 171.42 0 170.49-2.2Q167.54 0.49 163.7 0.49L163.7 0.49Q160.29 0.49 157.92-1.57 155.55-3.64 155.55-6.4L155.55-6.4Q155.55-7.86 156.09-9.03 156.62-10.21 157.64-10.99 158.65-11.77 159.94-12.32 161.24-12.87 162.96-13.16 164.68-13.45 166.41-13.57 168.15-13.7 170.22-13.7L170.22-13.7 170.22-15.6Q170.22-16.43 170.16-17.04 170.1-17.65 169.76-18.51 169.42-19.36 168.83-19.91 168.24-20.46 167.07-20.86 165.9-21.26 164.29-21.26L164.29-21.26Q161.8-21.26 157.84-20.17L157.84-20.17 157.09-23.1Q161.09-24.58 164.92-24.58ZM170.22-5.13L170.22-10.67 168.73-10.67Q167.34-10.67 166.32-10.62 165.29-10.57 163.91-10.34 162.53-10.11 161.65-9.69 160.77-9.28 160.15-8.48 159.53-7.69 159.53-6.59L159.53-6.59Q159.53-5.05 161.08-3.86 162.63-2.66 164.78-2.66L164.78-2.66Q167.93-2.66 170.22-5.13L170.22-5.13ZM181.82-11.5L181.82-11.5Q181.82-14.36 182.5-16.64 183.18-18.92 184.32-20.37 185.45-21.83 186.99-22.79 188.53-23.75 190.14-24.16 191.75-24.56 193.51-24.56L193.51-24.56Q196.98-24.56 200.27-23.12L200.27-23.12 199.3-20.19Q196.59-21.12 194-21.12L194-21.12Q192.73-21.12 191.61-20.89 190.48-20.65 189.37-20.04 188.26-19.43 187.47-18.47 186.67-17.5 186.19-15.94 185.7-14.38 185.7-12.35L185.7-12.35Q185.7-10.13 186.21-8.44 186.72-6.74 187.55-5.69 188.38-4.64 189.54-3.98 190.7-3.32 191.89-3.06 193.07-2.81 194.44-2.81L194.44-2.81Q196.73-2.81 199.03-3.61L199.03-3.61 200-0.85Q196.54 0.49 193.05 0.49L193.05 0.49Q191.44 0.49 189.96 0.17 188.48-0.15 186.96-0.99 185.43-1.83 184.32-3.13 183.21-4.42 182.51-6.58 181.82-8.74 181.82-11.5ZM207.47 0L207.47-36.89 211.48-36.89 211.48 0 207.47 0ZM211.87-13.33L222.51-24.61 226.93-24.61 216.43-13.75 227.57 0 222.76 0 211.87-13.33ZM257.17 0L246.36-34.69 250.75-34.69 259.47-5.54 268.26-34.69 272.43-34.69 281.47-5.54 289.94-34.69 294.33-34.69 283.64 0 279.22 0 270.11-28.98 261.59 0 257.17 0ZM310.57-24.58L310.57-24.58Q312.32-24.58 313.73-24.16 315.13-23.73 316.06-23.07 316.99-22.41 317.66-21.35 318.33-20.29 318.68-19.3 319.04-18.31 319.23-16.92 319.43-15.53 319.48-14.5 319.53-13.48 319.53-12.08L319.53-12.08 319.53-10.18 302.95-10.18Q302.95-8.86 303.55-7.56 304.14-6.25 305.23-5.16 306.32-4.08 308.09-3.39 309.86-2.71 312.01-2.71L312.01-2.71Q314.55-2.71 317.5-3.59L317.5-3.59 318.21-0.85Q314.28 0.49 310.49 0.49L310.49 0.49Q307.83 0.49 305.77-0.22 303.71-0.93 302.45-2.06 301.19-3.2 300.39-4.79 299.58-6.37 299.27-7.95 298.97-9.52 298.97-11.28L298.97-11.28Q298.97-13.99 299.63-16.24 300.29-18.48 301.41-20.01 302.53-21.53 304.03-22.58 305.54-23.63 307.18-24.11 308.83-24.58 310.57-24.58ZM309.71-21.12L309.71-21.12Q307.56-21.12 306.01-19.93 304.46-18.75 303.75-16.99 303.05-15.23 303.05-13.21L303.05-13.21 315.64-13.21Q315.64-21.12 309.71-21.12ZM327.34 0L327.34-36.89 331.34-36.89 331.34-22.97Q334.49-24.61 337.78-24.61L337.78-24.61Q339.25-24.61 340.67-24.26 342.08-23.9 343.51-23.01 344.94-22.12 346.01-20.78 347.09-19.43 347.76-17.26 348.43-15.09 348.43-12.35L348.43-12.35Q348.43-6.4 345.27-2.95 342.11 0.49 337.08 0.49L337.08 0.49Q333.78 0.49 330.61-1.12L330.61-1.12 330.12 0 327.34 0ZM336.42-21.29L336.42-21.29Q333.81-21.29 331.34-20L331.34-20 331.34-3.78Q333.95-2.66 336.49-2.66L336.49-2.66Q337.61-2.66 338.66-2.91 339.71-3.15 340.8-3.8 341.89-4.44 342.69-5.42 343.5-6.4 344.01-8.01 344.52-9.62 344.52-11.65L344.52-11.65Q344.52-13.94 343.99-15.71 343.45-17.48 342.62-18.51 341.79-19.53 340.67-20.19 339.54-20.85 338.52-21.07 337.49-21.29 336.42-21.29ZM383.21-31.03L376.48-31.03 376.48-3.66 381.53-3.66Q382.63-3.66 383.35-3.69 384.07-3.71 385.3-3.83 386.53-3.96 387.43-4.2 388.32-4.44 389.45-4.91 390.59-5.37 391.47-6.03 392.35-6.69 393.22-7.71 394.1-8.74 394.76-10.03L394.76-10.03Q396.37-13.13 396.37-17.58L396.37-17.58Q396.37-20.65 395.48-23.13 394.59-25.61 393.11-27.16 391.64-28.71 389.96-29.61 388.29-30.52 386.46-30.83L386.46-30.83Q385.39-31.03 383.21-31.03L383.21-31.03ZM372.33-34.69L383.07-34.69Q386.44-34.69 389.2-34.02 391.95-33.35 393.82-32.13 395.69-30.91 397.03-29.37 398.38-27.83 399.12-25.94 399.86-24.05 400.21-22.22 400.55-20.39 400.55-18.41L400.55-18.41Q400.55-16.14 400.21-14.04 399.86-11.94 399.02-9.77 398.18-7.59 396.87-5.87 395.57-4.15 393.49-2.77 391.42-1.39 388.78-0.73L388.78-0.73Q387.41-0.39 385.73-0.22 384.04-0.05 382.95-0.02 381.85 0 379.85 0L379.85 0 372.33 0 372.33-34.69ZM419.22-24.58L419.22-24.58Q420.98-24.58 422.38-24.16 423.79-23.73 424.72-23.07 425.64-22.41 426.31-21.35 426.99-20.29 427.34-19.3 427.69-18.31 427.89-16.92 428.09-15.53 428.13-14.5 428.18-13.48 428.18-12.08L428.18-12.08 428.18-10.18 411.61-10.18Q411.61-8.86 412.2-7.56 412.8-6.25 413.89-5.16 414.97-4.08 416.74-3.39 418.51-2.71 420.66-2.71L420.66-2.71Q423.2-2.71 426.16-3.59L426.16-3.59 426.86-0.85Q422.93 0.49 419.15 0.49L419.15 0.49Q416.49 0.49 414.43-0.22 412.36-0.93 411.11-2.06 409.85-3.2 409.04-4.79 408.24-6.37 407.93-7.95 407.63-9.52 407.63-11.28L407.63-11.28Q407.63-13.99 408.29-16.24 408.94-18.48 410.07-20.01 411.19-21.53 412.69-22.58 414.19-23.63 415.84-24.11 417.49-24.58 419.22-24.58ZM418.37-21.12L418.37-21.12Q416.22-21.12 414.67-19.93 413.12-18.75 412.41-16.99 411.7-15.23 411.7-13.21L411.7-13.21 424.3-13.21Q424.3-21.12 418.37-21.12ZM449.86-24.12L454.01-24.12 445.54 0 441.39 0 432.94-24.12 437.34-24.12 443.59-3.98 449.86-24.12ZM470.37-24.58L470.37-24.58Q472.12-24.58 473.53-24.16 474.93-23.73 475.86-23.07 476.79-22.41 477.46-21.35 478.13-20.29 478.48-19.3 478.84-18.31 479.03-16.92 479.23-15.53 479.28-14.5 479.33-13.48 479.33-12.08L479.33-12.08 479.33-10.18 462.75-10.18Q462.75-8.86 463.35-7.56 463.94-6.25 465.03-5.16 466.12-4.08 467.89-3.39 469.66-2.71 471.81-2.71L471.81-2.71Q474.34-2.71 477.3-3.59L477.3-3.59 478.01-0.85Q474.08 0.49 470.29 0.49L470.29 0.49Q467.63 0.49 465.57-0.22 463.5-0.93 462.25-2.06 460.99-3.2 460.18-4.79 459.38-6.37 459.07-7.95 458.77-9.52 458.77-11.28L458.77-11.28Q458.77-13.99 459.43-16.24 460.09-18.48 461.21-20.01 462.33-21.53 463.83-22.58 465.34-23.63 466.98-24.11 468.63-24.58 470.37-24.58ZM469.51-21.12L469.51-21.12Q467.36-21.12 465.81-19.93 464.26-18.75 463.55-16.99 462.85-15.23 462.85-13.21L462.85-13.21 475.44-13.21Q475.44-21.12 469.51-21.12ZM487.38 0L487.38-36.89 491.38-36.89 491.38 0 487.38 0ZM511.18-24.58L511.18-24.58Q516.19-24.58 519.42-21.39 522.66-18.19 522.66-12.55L522.66-12.55Q522.66-6.57 519.35-3.04 516.04 0.49 510.79 0.49L510.79 0.49Q505.78 0.49 502.61-2.82 499.44-6.13 499.44-11.79L499.44-11.79Q499.44-17.63 502.67-21.11 505.91-24.58 511.18-24.58ZM510.84-21.17L510.84-21.17Q507.84-21.17 505.59-18.85 503.34-16.53 503.34-12.48L503.34-12.48Q503.34-8.45 505.54-5.69 507.74-2.93 511.23-2.93L511.23-2.93Q514.45-2.93 516.6-5.37 518.75-7.81 518.75-11.74L518.75-11.74Q518.75-13.99 518.05-15.82 517.36-17.65 516.22-18.8 515.09-19.95 513.7-20.56 512.3-21.17 510.84-21.17ZM540.77-24.58L540.77-24.58Q542.26-24.58 543.67-24.23 545.09-23.88 546.52-22.99 547.95-22.09 549.01-20.74 550.07-19.38 550.74-17.21 551.41-15.04 551.41-12.33L551.41-12.33Q551.41-6.4 548.25-2.95 545.09 0.49 540.06 0.49L540.06 0.49Q537.18 0.49 534.22-0.81L534.22-0.81 534.22 12.96 530.22 12.96 530.22-24.12 533-24.12 533.66-22.58Q537.08-24.58 540.77-24.58ZM539.4-21.26L539.4-21.26Q536.74-21.26 534.22-19.92L534.22-19.92 534.22-3.83Q536.84-2.66 539.47-2.66L539.47-2.66Q540.6-2.66 541.65-2.91 542.7-3.15 543.78-3.8 544.87-4.44 545.68-5.42 546.48-6.4 546.99-8.01 547.51-9.62 547.51-11.65L547.51-11.65Q547.51-13.94 546.97-15.7 546.43-17.46 545.6-18.48 544.77-19.51 543.65-20.17 542.53-20.83 541.5-21.04 540.47-21.26 539.4-21.26ZM569.33-24.58L569.33-24.58Q571.09-24.58 572.49-24.16 573.9-23.73 574.82-23.07 575.75-22.41 576.42-21.35 577.09-20.29 577.45-19.3 577.8-18.31 578-16.92 578.19-15.53 578.24-14.5 578.29-13.48 578.29-12.08L578.29-12.08 578.29-10.18 561.71-10.18Q561.71-8.86 562.31-7.56 562.91-6.25 564-5.16 565.08-4.08 566.85-3.39 568.62-2.71 570.77-2.71L570.77-2.71Q573.31-2.71 576.26-3.59L576.26-3.59 576.97-0.85Q573.04 0.49 569.26 0.49L569.26 0.49Q566.6 0.49 564.53-0.22 562.47-0.93 561.21-2.06 559.95-3.2 559.15-4.79 558.34-6.37 558.04-7.95 557.73-9.52 557.73-11.28L557.73-11.28Q557.73-13.99 558.39-16.24 559.05-18.48 560.17-20.01 561.3-21.53 562.8-22.58 564.3-23.63 565.95-24.11 567.6-24.58 569.33-24.58ZM568.48-21.12L568.48-21.12Q566.33-21.12 564.78-19.93 563.23-18.75 562.52-16.99 561.81-15.23 561.81-13.21L561.81-13.21 574.41-13.21Q574.41-21.12 568.48-21.12ZM588.66-24.12L589.42-22.31Q592.47-24.58 596.16-24.58L596.16-24.58Q598.7-24.58 600.77-23.63L600.77-23.63 599.55-20.43Q597.65-21.17 595.6-21.17L595.6-21.17Q592.55-21.17 589.86-19.48L589.86-19.48 589.86 0 585.86 0 585.86-24.12 588.66-24.12Z" opacity="1" transform="matrix(1,0,0,1,0,0)" fill="#002349" class="slogan-text-1" data-fill-palette-color="secondary" id="text-1"></path></svg></g></svg></g></svg></g></svg></g></svg></g></svg></g></svg></g><g><path d="M220.575 0c68.262 0 123.6 55.338 123.6 123.6 0 68.262-55.338 123.6-123.6 123.6-33.092 0-63.146-13.004-85.331-34.182h7.384c20.846 18.187 48.11 29.203 77.947 29.203 29.837 0 57.101-11.016 77.947-29.203h0.023v-0.019c24.912-21.745 40.652-53.734 40.651-89.399 0-35.665-15.74-67.654-40.651-89.399v-0.019l-0.023 0c-20.846-18.187-48.11-29.203-77.947-29.203-29.837 0-57.101 11.016-77.947 29.203l-7.384 0c22.185-21.177 52.239-34.182 85.331-34.182z" fill="#002349" stroke="transparent" data-fill-palette-color="tertiary"></path></g></svg></g><defs></defs></svg><rect width="395.52" height="247.2" fill="none" stroke="none" visibility="hidden"></rect></g></svg></g></svg>